<?xml version="1.0" encoding="utf-8"?>
<!-- Svg Vector Icons : http://www.onlinewebfonts.com/icon -->
<!DOCTYPE svg PUBLIC "-//W3C//DTD SVG 1.1//EN" "http://www.w3.org/Graphics/SVG/1.1/DTD/svg11.dtd">
<svg version="1.1" xmlns="http://www.w3.org/2000/svg" xmlns:xlink="http://www.w3.org/1999/xlink" x="0px" y="0px" viewBox="0 0 256 256" enable-background="new 0 0 256 256" xml:space="preserve">
<metadata> Svg Vector Icons : http://www.onlinewebfonts.com/icon </metadata>
<g><g><g><g id="Shape_18_1_"><g><path fill="#000000" d="M198.5,75.3l-24.6-36h3.3c8.1,0,14.7-6.6,14.7-14.7S185.4,10,177.2,10H78.8c-8.1,0-14.7,6.6-14.7,14.7s6.6,14.7,14.7,14.7h3.3L57.5,75.3c-0.5,0.7-0.7,1.5-0.7,2.3V210c0,19.8,16.2,36,36,36h70.4c19.9,0,36-16.2,36-36V77.5C199.2,76.8,199,75.9,198.5,75.3z M72.2,24.7c0-3.6,3-6.6,6.6-6.6h98.5c3.6,0,6.6,3,6.6,6.6c0,3.6-3,6.6-6.6,6.6H78.8C75.1,31.2,72.2,28.3,72.2,24.7z M91.9,39.3h72.2l27,39.5v27.7c-74,28-115.6,22.7-126.2,20.5V78.8L91.9,39.3z M163.2,237.9H92.8c-15.4,0-27.9-12.5-27.9-27.9v-74.7c4.5,0.9,11.9,1.8,22.4,1.8c21.6,0,55.9-4.2,103.9-22V210C191.1,225.4,178.6,237.9,163.2,237.9z"/></g></g></g><g></g><g></g><g></g><g></g><g></g><g></g><g></g><g></g><g></g><g></g><g></g><g></g><g></g><g></g><g></g></g></g>
</svg>